HIERARCHY
ROOT Hips
{
	OFFSET -0.179506 -22.333345 2.821913
	CHANNELS 6 Xposition Yposition Zposition Zrotation Yrotation Xrotation 
	JOINT LeftUpLeg
	{
		OFFSET 6.951974 -9.140623 -0.681533
		CHANNELS 3 Zrotation Yrotation Xrotation
		JOINT LeftLeg
		{
			OFFSET 3.427654 -37.519855 -0.449580
			CHANNELS 3 Zrotation Yrotation Xrotation
			JOINT LeftFoot
			{
				OFFSET -1.359570 -39.796059 -4.369333
				CHANNELS 3 Zrotation Yrotation Xrotation
				JOINT LeftToe
				{
					OFFSET 2.635814 -5.579078 11.928840
					CHANNELS 3 Zrotation Yrotation Xrotation
					End Site
					{
						OFFSET 0.000000 0.000000 0.000000
					}
				}
			}
		}
	}
	JOINT RightUpLeg
	{
		OFFSET -6.767048 -9.052170 -0.431982
		CHANNELS 3 Zrotation Yrotation Xrotation
		JOINT RightLeg
		{
			OFFSET -3.829005 -38.256897 -0.885003
			CHANNELS 3 Zrotation Yrotation Xrotation
			JOINT RightFoot
			{
				OFFSET 1.577377 -39.841461 -4.231180
				CHANNELS 3 Zrotation Yrotation Xrotation
				JOINT RightToe
				{
					OFFSET -2.537174 -4.814398 12.334795
					CHANNELS 3 Zrotation Yrotation Xrotation
					End Site
					{
						OFFSET 0.000000 0.000000 0.000000
					}
				}
			}
		}
	}
	JOINT Spine
	{
		OFFSET -0.253288 10.896323 -2.669631
		CHANNELS 3 Zrotation Yrotation Xrotation
		JOINT Spine1
		{
			OFFSET 0.548704 13.518043 0.109247
			CHANNELS 3 Zrotation Yrotation Xrotation
			JOINT Spine2
			{
				OFFSET 0.145701 5.292222 2.542457
				CHANNELS 3 Zrotation Yrotation Xrotation
				JOINT Neck
				{
					OFFSET -0.277840 21.387037 -4.285703
					CHANNELS 3 Zrotation Yrotation Xrotation
					JOINT Head
					{
						OFFSET 0.515184 6.496960 5.134897
						CHANNELS 3 Zrotation Yrotation Xrotation
						End Site
						{
							OFFSET 0.000000 0.000000 0.000000
						}
					}
				}
				JOINT LeftShoulder
				{
					OFFSET 7.884473 12.174932 -3.408961
					CHANNELS 3 Zrotation Yrotation Xrotation
					JOINT LeftArm
					{
						OFFSET 9.097692 3.046888 -0.886815
						CHANNELS 3 Zrotation Yrotation Xrotation
						JOINT LeftForeArm
						{
							OFFSET 25.961220 -1.277207 -2.745643
							CHANNELS 3 Zrotation Yrotation Xrotation
							JOINT LeftHand
							{
								OFFSET 24.923361 0.898606 -0.117091
								CHANNELS 3 Zrotation Yrotation Xrotation
								End Site
								{
									OFFSET 0.000000 0.000000 0.000000
								}
							}
						}
					}
				}
				JOINT RightShoulder
				{
					OFFSET -8.175920 11.883285 -3.861528
					CHANNELS 3 Zrotation Yrotation Xrotation
					JOINT RightArm
					{
						OFFSET -9.601238 3.255117 -0.914307
						CHANNELS 3 Zrotation Yrotation Xrotation
						JOINT RightForeArm
						{
							OFFSET -25.374195 -1.332924 -2.140099
							CHANNELS 3 Zrotation Yrotation Xrotation
							JOINT RightHand
							{
								OFFSET -25.529810 0.777228 -0.555919
								CHANNELS 3 Zrotation Yrotation Xrotation
								End Site
								{
									OFFSET 0.000000 0.000000 0.000000
								}
							}
						}
					}
				}
			}
		}
	}
}
MOTION
Frames: 11
Frame Time: 0.033333
232.179733 113.360703 119.499298 2.277735 -27.109872 -6.434212 4.673437 7.905057 8.173709 -5.130070 4.954159 40.946963 -2.363583 13.135529 -2.555605 1.872718 -1.134229 -0.378139 4.004220 -3.577086 -17.019199 -0.910240 -19.525713 28.916693 -10.474174 -18.872563 -16.883245 1.579929 0.476345 -0.995221 -1.234331 -3.878059 10.618853 2.758308 -3.153574 -2.185385 -0.202907 -4.108362 5.633346 4.000065 -17.617493 0.817835 6.017397 -17.816868 -9.949920 -18.416065 4.968661 0.777243 -54.609619 -6.274174 8.792416 -1.565996 -11.077127 9.339039 2.711594 -2.178342 0.080773 15.911358 1.044532 -4.659455 54.493752 -0.319527 13.359889 -3.709961 31.947829 6.323771 0.980985 1.096552 -6.129323 
232.105118 113.629425 120.849388 2.109467 -30.168682 -6.676877 4.739949 7.216943 5.436718 -5.401866 5.678198 46.339192 -2.500733 12.482688 -0.675749 1.871446 -1.227927 -0.443660 4.290687 -3.300160 -15.338184 -0.378148 -17.962305 27.933046 -10.293612 -17.768802 -17.302704 1.370959 0.498584 -1.092136 -1.038054 -3.307814 10.856260 2.575490 -3.215981 -2.399095 -0.240716 -3.858552 5.674506 3.459478 -17.597736 1.132141 5.645168 -17.598410 -10.067058 -18.478091 5.397594 0.470381 -53.913531 -5.201077 8.012158 -1.321253 -10.890547 7.975623 3.332876 -1.747551 -0.377723 15.814671 1.031002 -4.894819 53.846522 0.006338 12.927035 -4.509575 33.813469 5.607869 0.101762 0.629282 -6.055656 
232.000992 113.932053 122.091331 1.807184 -33.382454 -6.711467 4.664160 6.640292 2.644366 -5.438159 6.389492 50.862870 -2.518216 11.912027 0.085178 1.943993 -1.368658 -0.480329 4.608332 -3.042307 -13.975589 0.114404 -16.577177 27.185884 -9.809671 -16.426168 -17.471383 1.262001 0.539935 -1.235958 -0.885129 -2.664418 11.152454 2.502705 -3.236090 -2.470254 -0.283892 -3.481292 5.660412 3.000701 -17.546374 1.289971 5.426752 -17.488030 -10.344359 -18.645953 5.732034 0.240794 -53.054152 -4.272552 7.088870 -0.912637 -10.836710 6.349686 3.637448 -1.180488 -0.992282 15.919517 1.117963 -4.954589 52.910470 0.613344 12.199174 -5.621854 35.173131 4.372663 -0.597549 0.176325 -6.153106 
231.540466 114.229065 123.257942 1.791577 -35.865191 -6.681908 4.786800 6.189174 0.181640 -5.552648 6.912062 54.396244 -2.415468 11.686625 0.100520 1.997715 -1.434858 -0.501045 4.778193 -2.913800 -12.312473 0.839732 -14.909593 25.567640 -9.336235 -15.662863 -17.874036 1.134037 0.543335 -1.370752 -0.822968 -2.090417 11.406915 2.391037 -3.366766 -2.573257 -0.289827 -3.217969 5.699407 2.615235 -17.470201 1.527924 5.134552 -17.132479 -10.491478 -18.738741 6.025860 -0.002698 -51.902513 -3.301925 6.183320 -0.544944 -10.753209 4.999404 4.347771 -0.662236 -1.347707 15.893720 1.194721 -5.044296 51.758504 1.099604 11.687763 -6.383104 36.190933 3.705873 -1.226433 -0.394315 -5.594424 
231.348450 114.526733 124.331802 1.927316 -38.434095 -6.911895 4.659330 5.750209 -2.168899 -5.762596 7.366796 57.282260 -2.292715 11.554414 -0.301964 2.035821 -1.514093 -0.489070 4.681255 -2.844672 -10.764694 1.332559 -13.222089 24.188732 -8.783366 -14.808273 -18.027633 1.106714 0.565575 -1.494764 -0.765610 -1.472884 11.621152 2.238583 -3.405467 -2.644615 -0.344728 -2.925498 5.786575 2.087415 -17.469248 1.910193 5.143845 -16.964045 -11.002291 -18.513654 6.375580 -0.117052 -50.523070 -2.401769 5.387445 -0.386724 -10.986573 3.656517 5.052217 -0.337500 -1.853583 15.478159 1.118635 -4.983579 50.528035 1.244139 10.961126 -7.187730 37.541230 2.953989 -1.979698 -0.807272 -5.385048 
231.257492 114.814316 125.537697 1.882258 -41.147137 -6.781189 4.824518 5.286495 -4.751258 -5.874744 8.285001 59.660678 -2.013343 11.683641 -1.191671 2.008481 -1.533586 -0.456489 4.640394 -2.693891 -9.216703 1.782164 -11.448400 22.291536 -8.282560 -13.895801 -18.078148 1.152504 0.579042 -1.578116 -0.922998 -0.719811 11.597478 2.063544 -3.399286 -2.687002 -0.431044 -2.491641 5.790834 1.742776 -16.973987 2.439551 5.223801 -16.370634 -11.355558 -18.068664 6.594783 -0.189662 -48.712018 -1.424130 4.546807 -0.364782 -11.254354 2.474104 5.769236 -0.172378 -2.029113 15.071738 1.142893 -4.807710 49.237907 1.665727 10.217432 -7.934662 38.161047 1.924308 -2.495947 -1.018185 -5.180202 
230.778503 115.088974 126.491661 2.056726 -43.676366 -6.716509 4.775289 4.859502 -6.956920 -5.723929 8.754819 61.103589 -1.748779 11.873179 -1.760920 1.927797 -1.510489 -0.468310 4.677114 -2.731101 -7.611714 2.079874 -9.907624 20.140809 -7.718177 -13.029030 -18.112931 1.142052 0.566309 -1.628138 -1.024832 -0.083443 11.544442 1.905824 -3.329658 -2.777927 -0.430706 -2.157555 5.753178 1.219619 -16.552791 2.825551 5.083771 -15.811736 -11.410599 -17.525416 6.993987 -0.249226 -46.827026 -0.452031 3.656225 -0.367165 -11.631237 1.313753 5.930623 -0.219955 -2.295386 14.601172 0.990217 -4.590335 47.507339 1.782590 9.331977 -8.431551 38.076784 0.903856 -2.794907 -1.073154 -4.887411 
230.157379 115.307434 127.379265 2.335798 -46.088773 -7.202618 4.630857 4.120146 -9.032509 -5.617642 8.438949 62.025270 -1.391047 12.136336 -2.414659 1.907153 -1.466341 -0.495729 4.672242 -2.619096 -5.715690 2.256343 -8.180131 18.505688 -7.203611 -12.520005 -18.215905 1.123998 0.516729 -1.710960 -1.203171 0.687726 11.965979 1.719764 -3.249121 -2.818198 -0.398045 -1.812525 5.710520 0.647584 -16.157770 3.172986 5.099780 -15.248006 -11.653882 -16.916771 7.203045 -0.193113 -44.338995 0.366237 2.527016 -0.091893 -12.457721 -0.488573 6.402441 -0.303341 -2.946982 14.121460 0.909037 -4.331551 45.481156 1.553331 8.185069 -9.330545 37.587770 -0.510652 -3.153738 -1.176369 -4.562771 
229.294556 115.467072 128.173843 3.042888 -49.284848 -7.702138 4.492504 2.916195 -11.355001 -5.771118 7.497670 62.385677 -0.893970 12.547736 -3.262602 1.912803 -1.476183 -0.566429 4.593405 -2.569663 -4.307616 2.203711 -6.372069 17.197279 -6.629566 -11.657815 -18.498504 1.093853 0.504524 -1.802857 -1.521695 1.626003 12.179441 1.431648 -3.016030 -2.833828 -0.354787 -1.409232 5.648831 0.140504 -15.680914 3.290887 5.329478 -14.581347 -11.773736 -16.163513 7.356078 -0.207692 -41.748928 1.146782 1.595352 0.054636 -12.685696 -2.361228 6.577942 -0.250040 -3.788012 13.503879 0.837547 -4.101338 43.294892 1.410794 7.136677 -9.946396 36.549712 -1.451405 -3.272978 -1.155039 -3.791332 
228.538040 115.577469 128.715393 3.594070 -52.169936 -8.514611 4.567936 1.829703 -13.765033 -5.942542 6.451739 62.410185 -0.377646 12.905830 -3.939758 1.870419 -1.443899 -0.616382 4.621903 -2.452734 -2.521068 2.266371 -4.225635 15.754705 -5.918859 -11.236220 -18.816105 1.009809 0.434370 -1.948922 -1.852410 2.537713 12.560088 1.146594 -2.824985 -2.618572 -0.321453 -1.083083 5.643223 -0.234786 -15.469806 3.250065 5.692979 -14.199769 -12.096999 -15.628056 7.160230 -0.308752 -38.434935 1.755803 0.611806 -0.022094 -12.757229 -3.933623 6.957944 -0.395168 -3.660591 13.088334 0.976240 -3.956224 40.571869 1.054109 5.764863 -10.513263 35.578010 -2.338699 -3.373898 -0.999831 -2.687331 
227.935822 115.641052 129.219040 4.559160 -55.380510 -9.376091 4.690851 0.940286 -16.496089 -6.085972 6.129800 62.052663 0.000630 13.283044 -4.382247 1.789078 -1.395851 -0.633714 4.331793 -2.369945 -1.561404 2.195223 -2.576202 14.981589 -5.295566 -10.353772 -19.225096 1.016427 0.380557 -2.112191 -2.209438 3.503984 12.805598 0.860492 -2.606918 -2.663183 -0.368392 -0.598411 5.732443 -0.349615 -14.727735 3.166507 5.924566 -13.577042 -12.283543 -15.077182 7.157189 -0.667882 -35.368266 2.176498 -0.117384 -0.022645 -12.479008 -5.945299 7.442481 -0.480424 -3.500085 12.700237 1.077300 -4.063275 38.154146 1.288772 4.595831 -10.551272 34.146249 -3.196172 -3.352292 -0.801584 -2.117566 
